<svg id="svg" version="1.1" xmlns="http://www.w3.org/2000/svg" xmlns:xlink="http://www.w3.org/1999/xlink" width="400" height="225" viewBox="0, 0, 400,225"><g id="svgg"><path id="path0" d="M0.000 112.500 L 0.000 225.000 121.460 225.000 L 242.921 225.000 244.466 223.858 L 246.010 222.715 246.547 223.353 C 247.179 224.105,247.209 224.338,246.719 224.710 C 246.415 224.940,259.254 224.988,323.177 224.993 L 400.000 225.000 400.000 112.500 L 400.000 0.000 200.000 0.000 L 0.000 0.000 0.000 112.500 M371.539 139.852 C 372.627 140.119,372.566 140.023,372.292 141.042 L 372.056 141.918 371.080 141.755 C 370.543 141.665,369.405 141.584,368.550 141.574 L 366.995 141.556 366.838 140.830 C 366.574 139.611,366.665 139.554,368.776 139.600 C 369.824 139.623,371.067 139.737,371.539 139.852 M362.299 142.935 C 362.539 143.513,362.519 143.592,362.061 143.895 C 361.787 144.077,360.989 144.821,360.288 145.550 C 358.841 147.054,358.862 147.046,358.031 146.381 C 357.306 145.801,357.415 145.527,358.994 143.961 C 361.172 141.802,361.755 141.621,362.299 142.935 M378.796 143.906 C 381.275 146.255,381.559 146.860,380.479 147.497 L 379.708 147.952 379.290 147.361 C 379.059 147.037,378.275 146.179,377.546 145.456 L 376.220 144.141 376.767 143.425 C 377.451 142.528,377.303 142.492,378.796 143.906 M356.823 151.247 C 357.249 151.250,357.292 151.351,357.297 152.344 C 357.300 153.017,357.497 153.914,357.811 154.677 C 358.091 155.358,358.300 155.928,358.275 155.942 C 358.250 155.956,357.933 156.172,357.572 156.422 C 356.712 157.015,356.751 157.029,356.179 155.885 C 355.043 153.613,354.878 150.849,355.895 151.121 C 356.147 151.189,356.565 151.246,356.823 151.247 M384.134 152.959 C 384.561 154.874,384.660 155.727,384.604 157.031 C 384.581 157.565,382.972 157.755,382.834 157.240 C 382.796 157.096,382.622 156.089,382.447 155.000 C 382.272 153.911,382.066 152.867,381.988 152.678 C 381.879 152.412,382.048 152.267,382.747 152.029 C 383.866 151.648,383.837 151.628,384.134 152.959 M397.822 155.530 L 397.956 156.373 396.322 156.753 C 395.423 156.963,394.278 157.271,393.777 157.438 C 392.706 157.796,392.515 157.669,392.446 156.551 L 392.396 155.729 394.896 155.080 C 397.673 154.358,397.633 154.351,397.822 155.530 M387.569 158.397 C 387.800 159.380,388.049 159.210,385.104 160.067 C 382.388 160.856,382.433 160.864,382.183 159.531 C 382.069 158.922,382.103 158.750,382.338 158.750 C 382.674 158.750,385.293 157.989,385.938 157.703 C 386.818 157.314,387.369 157.548,387.569 158.397 M363.680 159.468 C 364.501 159.746,365.510 160.038,365.922 160.115 C 367.082 160.333,367.223 162.083,366.080 162.083 C 365.127 162.083,361.640 160.992,361.085 160.520 C 360.946 160.402,361.761 158.958,361.966 158.960 C 362.088 158.961,362.859 159.189,363.680 159.468 M377.246 160.885 C 377.501 162.094,377.613 162.031,374.583 162.395 C 372.126 162.690,371.996 162.663,371.860 161.828 C 371.683 160.739,371.738 160.705,374.167 160.425 C 375.370 160.286,376.393 160.134,376.441 160.086 C 376.744 159.785,377.085 160.123,377.246 160.885 M93.423 162.202 C 93.957 162.737,93.824 163.315,92.219 167.430 C 91.377 169.588,89.478 174.952,88.000 179.350 C 84.412 190.026,84.799 189.882,81.767 181.667 C 79.317 175.029,79.829 175.643,77.311 176.318 C 73.541 177.329,73.277 176.966,75.241 173.468 C 75.810 172.454,76.247 171.600,76.211 171.572 C 76.116 171.496,68.116 168.616,67.500 168.435 C 66.735 168.211,66.458 167.927,66.458 167.367 C 66.458 166.052,68.913 165.475,83.125 163.448 C 86.734 162.934,90.344 162.380,91.146 162.218 C 93.084 161.827,93.047 161.827,93.423 162.202 M382.988 162.516 C 383.957 162.785,383.945 162.894,382.622 165.725 C 381.558 168.001,381.500 168.050,380.537 167.482 C 379.639 166.952,379.633 167.227,380.591 165.275 C 381.030 164.379,381.511 163.341,381.658 162.969 C 381.961 162.202,381.913 162.218,382.988 162.516 M81.979 165.323 C 77.854 165.928,73.363 166.630,71.998 166.884 L 69.516 167.345 73.437 168.783 L 77.358 170.221 79.877 168.986 C 81.262 168.308,84.036 166.979,86.042 166.033 C 89.685 164.316,90.029 164.141,89.670 164.196 C 89.565 164.211,86.104 164.719,81.979 165.323 M88.293 167.765 C 84.441 170.913,80.858 174.035,80.845 174.255 C 80.838 174.362,81.578 176.424,82.488 178.839 C 83.399 181.254,84.226 183.452,84.326 183.724 C 84.475 184.130,84.933 182.969,86.871 177.266 C 88.170 173.442,89.638 169.287,90.132 168.033 C 90.626 166.779,91.003 165.725,90.968 165.691 C 90.934 165.657,89.730 166.590,88.293 167.765 M81.719 169.915 C 78.844 171.314,78.716 171.443,79.359 172.280 L 79.750 172.788 81.906 170.944 C 84.409 168.803,84.707 168.537,84.576 168.556 C 84.523 168.564,83.237 169.175,81.719 169.915 M377.541 171.601 C 378.353 172.380,378.348 172.391,376.243 174.484 L 374.361 176.354 373.743 175.649 C 373.001 174.802,372.803 175.241,374.951 172.977 C 377.059 170.755,376.801 170.892,377.541 171.601 M77.000 173.794 C 76.369 174.853,76.337 174.809,77.552 174.531 C 78.632 174.284,78.729 174.095,78.137 173.385 C 77.622 172.769,77.609 172.774,77.000 173.794 M54.356 174.987 C 55.658 175.913,56.430 179.160,55.313 179.005 C 54.109 178.837,54.057 178.793,54.034 177.914 C 54.007 176.916,53.363 176.098,52.526 176.001 C 51.953 175.934,51.910 175.690,52.297 174.673 C 52.512 174.107,53.287 174.226,54.356 174.987 M51.138 175.052 C 50.937 175.987,50.958 175.968,49.737 176.361 C 49.137 176.555,48.329 176.894,47.942 177.115 C 47.556 177.336,47.216 177.490,47.188 177.456 C 47.018 177.257,46.439 175.993,46.495 175.945 C 47.047 175.468,49.980 174.405,50.798 174.386 C 51.237 174.376,51.269 174.439,51.138 175.052 M46.036 177.333 L 46.441 177.999 45.713 178.887 C 45.313 179.375,44.847 180.107,44.678 180.513 C 44.376 181.235,42.708 181.688,42.708 181.048 C 42.708 180.220,45.014 176.667,45.550 176.667 C 45.595 176.667,45.813 176.966,46.036 177.333 M369.769 178.764 C 370.409 179.629,370.347 179.716,367.962 181.313 C 365.515 182.953,365.773 182.893,365.199 181.964 C 364.657 181.087,364.553 181.223,367.098 179.477 C 369.397 177.900,369.174 177.959,369.769 178.764 M73.117 179.053 C 73.444 179.446,73.263 179.942,72.479 180.802 L 71.843 181.501 71.338 181.027 C 70.707 180.434,70.709 180.343,71.379 179.465 C 71.963 178.700,72.682 178.529,73.117 179.053 M54.879 179.918 C 56.473 180.530,51.478 184.167,49.044 184.167 C 48.416 184.167,48.673 182.525,49.323 182.383 C 50.852 182.049,52.817 180.975,53.283 180.218 C 53.542 179.797,54.228 179.668,54.879 179.918 M70.595 181.530 C 71.193 182.167,71.068 182.429,69.519 183.786 C 66.735 186.225,66.510 186.330,65.982 185.435 L 65.623 184.829 66.926 183.786 C 67.643 183.213,68.600 182.361,69.053 181.893 C 70.018 180.895,70.002 180.899,70.595 181.530 M308.397 181.387 C 308.696 181.472,308.759 181.670,308.709 182.361 L 308.646 183.229 306.042 183.153 C 303.060 183.065,303.333 183.148,303.199 182.293 C 303.001 181.037,303.079 181.001,305.676 181.147 C 306.966 181.220,308.190 181.328,308.397 181.387 M298.142 182.468 C 298.218 183.039,298.179 183.394,298.038 183.429 C 297.708 183.509,294.153 184.211,293.530 184.318 C 293.067 184.398,292.966 184.309,292.758 183.629 C 292.424 182.541,292.415 182.545,296.771 181.591 C 297.773 181.371,298.016 181.527,298.142 182.468 M44.167 182.460 C 44.167 182.802,44.339 182.828,46.042 182.747 L 47.917 182.657 47.917 183.400 C 47.917 184.327,47.879 184.348,45.956 184.511 C 45.086 184.584,44.375 184.682,44.375 184.728 C 44.375 185.091,45.142 186.131,45.866 186.751 L 46.743 187.501 46.388 188.246 L 46.033 188.991 45.048 188.286 C 44.298 187.749,43.888 187.226,43.333 186.096 C 42.920 185.255,42.466 184.606,42.286 184.598 C 41.933 184.582,41.960 182.917,42.314 182.917 C 42.416 182.917,42.500 182.729,42.500 182.500 C 42.500 182.153,42.639 182.083,43.333 182.083 C 43.998 182.083,44.167 182.159,44.167 182.460 M316.207 182.617 C 319.471 183.278,319.409 183.247,319.253 184.125 C 319.053 185.252,319.054 185.252,316.345 184.688 C 314.975 184.403,313.831 184.169,313.802 184.168 C 313.703 184.165,313.756 183.228,313.881 182.760 C 314.031 182.203,314.133 182.197,316.207 182.617 M41.080 183.721 L 41.004 184.525 39.015 184.664 C 36.726 184.825,36.952 184.900,36.769 183.922 C 36.602 183.025,36.670 183.000,39.485 182.948 L 41.157 182.917 41.080 183.721 M35.792 184.185 L 35.854 184.930 34.324 185.374 C 33.483 185.619,32.272 186.097,31.635 186.438 L 30.475 187.056 30.029 186.453 C 29.784 186.122,29.583 185.808,29.583 185.755 C 29.583 185.345,34.700 183.269,35.417 183.389 C 35.612 183.421,35.753 183.721,35.792 184.185 M360.627 184.219 C 360.854 184.591,361.040 185.019,361.041 185.170 C 361.042 185.478,358.581 186.669,356.954 187.147 L 355.888 187.461 355.636 186.622 C 355.336 185.621,355.335 185.624,357.188 184.915 C 357.990 184.609,358.974 184.178,359.375 183.959 C 359.776 183.739,360.129 183.555,360.159 183.550 C 360.190 183.546,360.400 183.846,360.627 184.219 M327.216 185.115 C 330.113 185.741,329.874 185.587,329.589 186.646 C 329.318 187.653,329.445 187.640,326.458 186.979 C 325.163 186.693,324.069 186.458,324.027 186.458 C 323.955 186.458,324.081 185.770,324.304 184.948 C 324.428 184.491,324.294 184.483,327.216 185.115 M287.982 185.528 C 288.433 186.474,288.485 186.353,287.344 187.010 C 286.799 187.323,285.808 187.944,285.141 188.391 C 283.827 189.271,283.809 189.268,283.112 188.069 C 282.820 187.566,282.946 187.417,284.547 186.373 C 287.327 184.561,287.501 184.519,287.982 185.528 M65.268 186.022 C 65.464 186.355,65.625 186.668,65.625 186.719 C 65.625 186.830,61.760 188.646,61.113 188.840 C 60.715 188.959,59.908 187.648,60.240 187.422 C 60.280 187.395,60.990 187.106,61.818 186.780 C 62.646 186.454,63.584 186.021,63.901 185.817 C 64.700 185.305,64.858 185.329,65.268 186.022 M29.583 187.600 C 29.583 187.729,29.248 188.158,28.837 188.553 C 28.241 189.127,27.498 190.056,26.537 191.427 C 26.452 191.549,25.000 191.020,25.000 190.866 C 25.000 190.555,26.555 188.440,27.518 187.441 L 28.538 186.382 29.061 186.873 C 29.348 187.143,29.583 187.470,29.583 187.600 M338.310 187.082 C 340.381 187.317,340.256 187.231,340.084 188.306 C 339.926 189.296,339.865 189.310,337.083 188.954 C 334.683 188.647,334.411 188.564,334.489 188.165 C 334.810 186.528,334.739 186.612,335.687 186.753 C 336.168 186.824,337.349 186.972,338.310 187.082 M350.688 187.751 C 350.842 188.903,350.868 188.882,349.119 189.044 C 348.286 189.121,347.065 189.237,346.406 189.303 L 345.208 189.421 345.208 188.356 L 345.208 187.292 346.302 187.273 C 346.904 187.263,347.865 187.182,348.438 187.093 C 350.532 186.767,350.557 186.774,350.688 187.751 M59.539 188.684 L 59.760 189.347 58.682 189.581 C 57.408 189.857,54.161 190.275,54.068 190.174 C 54.032 190.136,54.064 189.729,54.140 189.271 L 54.277 188.438 55.837 188.292 C 56.694 188.212,57.771 188.063,58.229 187.959 C 59.179 187.745,59.237 187.778,59.539 188.684 M51.094 188.369 L 53.125 188.600 53.125 189.433 L 53.125 190.266 51.302 190.119 C 47.619 189.821,46.886 189.527,47.393 188.547 C 47.706 187.942,47.812 187.885,48.402 188.004 C 48.765 188.077,49.977 188.241,51.094 188.369 M279.655 191.934 C 280.366 192.544,280.372 192.513,279.276 193.859 C 278.763 194.488,278.131 195.377,277.870 195.833 C 277.281 196.865,276.903 196.879,275.651 195.911 C 275.397 195.715,278.446 191.458,278.841 191.458 C 278.985 191.458,279.351 191.672,279.655 191.934 M25.570 192.184 L 26.037 192.318 25.583 193.190 C 25.334 193.670,24.923 194.766,24.671 195.625 C 24.419 196.484,24.154 197.175,24.081 197.160 C 24.008 197.146,23.669 197.078,23.328 197.009 C 22.563 196.856,22.549 196.584,23.203 194.660 C 23.922 192.547,24.329 191.835,24.750 191.952 C 24.945 192.006,25.314 192.111,25.570 192.184 M23.677 198.043 C 24.232 198.191,24.634 201.624,24.164 202.191 C 23.322 203.205,22.702 202.322,22.558 199.907 C 22.428 197.742,22.446 197.712,23.677 198.043 M274.396 201.073 C 274.785 201.204,275.135 201.336,275.172 201.366 C 275.210 201.397,275.053 202.109,274.823 202.950 C 274.594 203.791,274.341 204.901,274.261 205.417 C 274.181 205.932,274.035 206.406,273.935 206.469 C 273.836 206.533,273.847 206.904,273.961 207.301 C 274.237 208.264,274.220 208.542,273.885 208.542 C 273.731 208.542,272.599 208.878,271.370 209.290 C 270.140 209.701,269.098 210.001,269.053 209.956 C 269.008 209.911,268.825 209.524,268.646 209.096 L 268.321 208.317 269.108 207.978 C 269.541 207.791,270.740 207.382,271.771 207.069 C 273.427 206.566,273.561 206.491,272.917 206.427 C 272.034 206.339,272.108 204.787,273.150 201.510 C 273.392 200.749,273.415 200.741,274.396 201.073 M284.543 206.510 L 284.606 207.500 282.563 207.518 C 281.440 207.528,280.226 207.567,279.866 207.604 C 279.283 207.665,279.198 207.604,279.085 207.039 C 278.781 205.517,278.919 205.462,282.917 205.504 L 284.479 205.521 284.543 206.510 M291.330 206.659 C 294.434 207.726,295.400 208.581,294.591 209.544 L 294.012 210.233 293.018 209.603 C 292.472 209.256,291.425 208.773,290.692 208.529 C 289.655 208.184,289.382 208.009,289.461 207.741 C 289.518 207.551,289.625 207.138,289.700 206.823 C 289.863 206.140,289.832 206.143,291.330 206.659 M264.113 211.446 L 264.579 212.263 263.383 212.940 C 262.726 213.312,261.720 213.928,261.149 214.309 C 259.872 215.159,259.924 215.160,259.371 214.265 C 258.845 213.414,258.964 213.156,260.194 212.474 C 260.603 212.248,261.453 211.748,262.083 211.363 C 263.543 210.472,263.557 210.472,264.113 211.446 M273.974 211.931 C 273.983 212.187,274.018 212.536,274.051 212.708 C 274.085 212.880,274.171 213.506,274.243 214.099 C 274.315 214.692,274.468 215.425,274.583 215.727 C 274.698 216.030,274.792 216.347,274.792 216.433 C 274.792 216.666,273.335 217.317,273.116 217.182 C 272.632 216.883,271.843 212.593,272.133 211.839 C 272.336 211.311,273.956 211.392,273.974 211.931 M298.194 214.199 C 298.536 215.507,297.792 219.583,297.211 219.583 C 297.079 219.583,295.625 218.729,295.625 218.651 C 295.625 218.619,295.766 218.256,295.938 217.845 C 296.120 217.407,296.250 216.453,296.250 215.545 C 296.250 213.876,296.303 213.795,297.424 213.766 C 297.925 213.754,298.104 213.855,298.194 214.199 M255.183 217.094 C 255.791 217.916,255.842 217.838,253.561 219.561 C 251.317 221.256,251.233 221.279,250.653 220.365 C 250.149 219.568,250.045 219.711,252.500 217.832 C 254.554 216.260,254.565 216.257,255.183 217.094 M279.347 220.938 C 280.146 221.339,280.857 221.667,280.927 221.667 C 281.889 221.667,282.457 222.286,282.249 223.107 C 282.130 223.575,281.918 223.958,281.778 223.958 C 281.307 223.958,279.280 223.184,278.229 222.604 C 276.615 221.711,276.625 221.726,277.145 220.923 C 277.707 220.054,277.586 220.054,279.347 220.938 M292.607 222.507 C 292.847 223.039,292.913 223.420,292.788 223.546 C 292.499 223.834,289.622 224.537,288.423 224.611 L 287.396 224.675 287.332 223.692 C 287.271 222.741,287.288 222.708,287.853 222.692 C 288.521 222.674,288.803 222.626,290.286 222.280 C 290.873 222.142,291.495 221.951,291.667 221.855 C 292.156 221.580,292.205 221.615,292.607 222.507 " stroke="none" fill="#fbfcfc" fill-rule="evenodd"></path><path id="path1" d="M367.633 139.753 C 366.856 139.817,366.833 139.842,366.956 140.457 C 367.026 140.807,367.083 141.176,367.083 141.276 C 367.083 141.376,367.857 141.458,368.803 141.458 C 369.750 141.458,370.833 141.547,371.210 141.655 C 371.966 141.872,372.065 141.773,372.143 140.730 C 372.201 139.953,370.266 139.534,367.633 139.753 M360.298 142.969 C 357.861 145.103,357.440 145.842,358.347 146.392 C 358.874 146.712,358.900 146.697,360.489 145.129 C 361.373 144.256,362.185 143.542,362.291 143.542 C 362.398 143.542,362.292 143.214,362.056 142.813 C 361.517 141.900,361.518 141.900,360.298 142.969 M376.884 143.529 L 376.448 144.142 377.667 145.352 C 378.338 146.018,379.086 146.828,379.330 147.152 L 379.774 147.742 380.408 147.368 C 381.292 146.846,381.251 146.743,379.356 144.718 C 377.452 142.683,377.478 142.695,376.884 143.529 M355.419 152.240 C 355.422 153.373,355.816 155.003,356.327 155.990 C 356.735 156.778,356.719 156.773,357.455 156.313 C 357.766 156.119,358.045 155.946,358.075 155.929 C 358.105 155.912,357.944 155.477,357.717 154.964 C 357.490 154.450,357.240 153.474,357.162 152.796 C 357.008 151.456,356.858 151.258,355.990 151.253 C 355.444 151.250,355.417 151.298,355.419 152.240 M382.851 152.129 C 382.241 152.291,382.088 152.418,382.190 152.680 C 382.391 153.199,382.820 155.864,382.906 157.135 C 382.912 157.221,383.299 157.292,383.767 157.292 L 384.616 157.292 384.489 155.990 C 384.382 154.898,383.772 151.827,383.675 151.897 C 383.659 151.908,383.288 152.013,382.851 152.129 M396.458 154.822 C 396.057 154.933,395.003 155.216,394.115 155.451 C 392.408 155.903,392.103 156.281,392.760 157.133 C 393.001 157.444,397.206 156.614,397.653 156.166 C 397.803 156.016,397.511 154.580,397.334 154.602 C 397.254 154.612,396.859 154.711,396.458 154.822 M386.146 157.828 C 385.688 157.979,384.633 158.305,383.802 158.551 C 382.244 159.013,382.134 159.141,382.490 160.079 L 382.689 160.601 384.001 160.222 C 384.722 160.013,385.845 159.685,386.496 159.494 L 387.679 159.146 387.457 158.479 C 387.147 157.549,387.084 157.518,386.146 157.828 M361.584 159.730 C 361.400 160.115,361.250 160.462,361.250 160.500 C 361.250 160.709,366.212 162.194,366.370 162.032 C 366.818 161.573,366.647 160.423,366.115 160.314 C 365.788 160.247,364.710 159.931,363.720 159.611 L 361.918 159.029 361.584 159.730 M375.521 160.426 C 375.063 160.522,374.266 160.608,373.750 160.616 C 372.156 160.641,371.875 160.787,371.875 161.593 C 371.875 162.527,371.991 162.552,374.752 162.211 C 377.470 161.876,377.371 161.926,377.134 161.013 C 376.934 160.240,376.743 160.170,375.521 160.426 M90.625 162.418 C 89.766 162.577,85.828 163.172,81.875 163.741 C 70.952 165.312,67.770 165.961,66.833 166.809 C 66.075 167.495,66.548 168.074,68.333 168.648 C 69.554 169.040,76.317 171.456,76.386 171.525 C 76.409 171.548,75.919 172.456,75.298 173.543 C 73.508 176.680,73.799 177.221,76.819 176.370 C 79.927 175.495,79.331 174.874,81.848 181.615 C 84.877 189.726,84.353 189.966,88.106 178.750 C 89.621 174.224,91.455 169.021,92.181 167.188 C 94.347 161.720,94.350 161.728,90.625 162.418 M381.875 162.713 C 381.875 162.856,381.452 163.865,380.935 164.956 C 380.418 166.047,380.020 166.957,380.050 166.977 C 380.080 166.997,380.336 167.170,380.619 167.361 C 380.903 167.552,381.206 167.708,381.294 167.708 C 381.629 167.708,383.742 163.045,383.510 162.817 C 383.259 162.570,381.875 162.482,381.875 162.713 M90.208 164.064 C 90.208 164.173,87.541 165.467,82.279 167.911 C 80.611 168.685,78.866 169.560,78.400 169.854 L 77.554 170.388 74.454 169.239 C 72.749 168.606,70.885 167.924,70.313 167.722 C 69.489 167.431,69.358 167.328,69.688 167.226 C 70.595 166.947,75.043 166.235,82.291 165.209 C 86.473 164.618,89.934 164.094,89.982 164.046 C 90.101 163.927,90.208 163.936,90.208 164.064 M90.396 167.613 C 89.936 168.754,88.472 172.922,87.144 176.875 C 85.816 180.828,84.668 184.133,84.593 184.220 C 84.518 184.307,83.604 182.103,82.562 179.324 C 80.782 174.574,80.689 174.248,81.011 173.882 C 81.903 172.870,91.014 165.320,91.163 165.469 C 91.202 165.508,90.857 166.473,90.396 167.613 M84.152 169.114 C 83.644 169.544,82.450 170.585,81.497 171.428 C 79.863 172.872,79.748 172.938,79.462 172.574 C 78.757 171.674,78.684 171.409,79.075 171.167 C 79.510 170.899,84.853 168.338,84.985 168.335 C 85.035 168.334,84.660 168.685,84.152 169.114 M375.071 173.073 L 373.371 174.860 373.808 175.451 C 374.381 176.225,374.240 176.292,376.203 174.319 C 378.095 172.416,378.125 172.352,377.434 171.703 C 376.822 171.128,377.042 171.001,375.071 173.073 M78.750 174.177 C 78.750 174.301,76.409 175.021,76.314 174.926 C 76.289 174.900,76.559 174.371,76.914 173.750 L 77.559 172.620 78.154 173.333 C 78.482 173.726,78.750 174.105,78.750 174.177 M49.271 174.869 C 46.734 175.697,46.388 175.944,46.811 176.620 C 47.006 176.932,47.177 177.209,47.191 177.236 C 47.204 177.263,47.865 177.008,48.660 176.669 C 49.454 176.330,50.258 176.050,50.446 176.047 C 50.634 176.044,50.845 175.816,50.914 175.540 C 50.983 175.264,51.097 174.889,51.167 174.707 C 51.336 174.267,51.039 174.293,49.271 174.869 M52.295 174.888 C 51.997 175.671,52.028 175.833,52.478 175.833 C 53.237 175.833,54.167 176.955,54.167 177.872 C 54.167 178.699,54.439 178.945,55.365 178.955 C 55.738 178.960,55.701 177.001,55.313 176.250 C 54.577 174.828,52.649 173.957,52.295 174.888 M44.711 177.510 C 43.482 178.971,42.571 181.039,43.154 181.045 C 43.310 181.046,43.638 181.101,43.884 181.167 C 44.252 181.266,44.372 181.160,44.567 180.570 C 44.697 180.175,45.147 179.452,45.566 178.963 C 46.284 178.124,46.310 178.043,46.028 177.543 C 45.598 176.780,45.331 176.773,44.711 177.510 M367.385 179.443 C 366.576 180.036,365.696 180.666,365.428 180.844 C 364.927 181.176,364.940 181.286,365.602 182.278 C 365.780 182.545,370.000 180.014,370.000 179.640 C 370.000 179.368,369.256 178.336,369.070 178.349 C 368.951 178.358,368.193 178.850,367.385 179.443 M71.508 179.492 L 70.765 180.235 71.330 180.795 L 71.896 181.354 72.505 180.625 C 73.178 179.819,73.302 179.071,72.795 178.876 C 72.309 178.690,72.311 178.689,71.508 179.492 M52.858 180.735 C 51.956 181.556,50.034 182.500,49.263 182.500 C 49.054 182.500,48.958 182.728,48.958 183.229 C 48.958 184.113,49.241 184.156,50.994 183.540 C 52.872 182.879,55.710 180.553,55.172 180.115 C 54.624 179.669,53.781 179.895,52.858 180.735 M69.258 181.892 C 68.921 182.245,68.013 183.052,67.240 183.686 C 65.670 184.973,65.699 184.918,66.220 185.595 L 66.597 186.085 67.830 185.098 C 68.508 184.556,69.507 183.683,70.049 183.160 L 71.036 182.209 70.586 181.729 C 70.014 181.120,69.990 181.123,69.258 181.892 M303.333 182.057 L 303.333 182.863 305.849 183.013 C 307.232 183.096,308.391 183.131,308.424 183.092 C 308.456 183.053,308.535 182.682,308.599 182.269 L 308.714 181.516 307.138 181.383 C 306.271 181.310,305.061 181.250,304.448 181.250 L 303.333 181.250 303.333 182.057 M294.838 182.173 C 292.546 182.740,292.668 182.650,292.924 183.576 L 293.128 184.316 295.158 183.825 C 296.274 183.555,297.409 183.334,297.681 183.334 C 298.090 183.333,298.152 183.254,298.048 182.865 C 297.979 182.607,297.921 182.232,297.920 182.031 C 297.916 181.543,297.261 181.573,294.838 182.173 M42.325 183.097 C 42.005 184.165,42.020 184.583,42.381 184.583 C 42.544 184.583,42.924 185.122,43.226 185.781 C 44.276 188.077,45.802 189.193,46.375 188.084 C 46.622 187.606,46.652 187.391,46.478 187.333 C 46.007 187.176,44.982 186.194,44.680 185.611 C 44.115 184.518,44.235 184.375,45.712 184.375 C 47.481 184.375,47.708 184.269,47.708 183.441 L 47.708 182.761 45.829 182.868 C 44.147 182.964,43.963 182.939,44.080 182.633 C 44.188 182.352,44.065 182.292,43.389 182.292 C 42.614 182.292,42.552 182.339,42.325 183.097 M314.056 182.572 C 314.010 182.704,313.946 183.086,313.914 183.420 L 313.854 184.027 316.146 184.501 C 317.406 184.762,318.544 184.981,318.675 184.988 C 318.885 184.999,319.294 183.598,319.128 183.434 C 318.862 183.172,314.126 182.367,314.056 182.572 M38.165 183.071 L 36.851 183.146 36.915 183.897 L 36.979 184.648 38.851 184.601 C 40.843 184.552,41.033 184.456,41.038 183.490 C 41.042 182.856,41.303 182.894,38.165 183.071 M33.542 183.944 C 32.297 184.340,29.891 185.504,29.709 185.798 C 29.647 185.899,29.822 186.193,30.098 186.453 L 30.600 186.924 31.290 186.505 C 32.126 185.998,34.869 185.000,35.429 185.000 C 35.853 185.000,35.911 184.789,35.702 184.010 C 35.551 183.448,35.141 183.435,33.542 183.944 M359.583 184.059 C 359.297 184.221,358.289 184.656,357.344 185.027 C 355.572 185.722,355.456 185.858,355.868 186.764 C 356.155 187.394,356.174 187.390,358.906 186.206 C 359.966 185.747,360.833 185.283,360.833 185.175 C 360.833 184.979,360.239 183.744,360.151 183.757 C 360.125 183.761,359.870 183.897,359.583 184.059 M324.469 184.872 C 324.426 185.000,324.363 185.380,324.330 185.718 L 324.271 186.332 326.725 186.886 C 328.075 187.190,329.212 187.383,329.253 187.314 C 329.531 186.835,329.587 185.824,329.340 185.750 C 327.612 185.232,324.536 184.677,324.469 184.872 M285.000 186.279 C 283.911 186.971,283.002 187.555,282.980 187.577 C 282.957 187.599,283.169 187.912,283.451 188.272 L 283.964 188.927 285.993 187.662 C 287.108 186.966,288.057 186.367,288.101 186.330 C 288.306 186.160,287.619 185.001,287.318 185.010 C 287.132 185.016,286.089 185.587,285.000 186.279 M64.064 185.832 C 63.721 186.057,62.726 186.537,61.852 186.897 L 60.264 187.553 60.490 188.151 C 60.787 188.938,60.938 188.919,63.357 187.781 C 65.518 186.764,65.629 186.641,65.047 185.888 L 64.688 185.422 64.064 185.832 M27.564 187.552 C 26.015 189.154,24.919 190.901,25.356 191.073 C 26.105 191.369,26.578 191.249,26.917 190.677 C 27.104 190.362,27.777 189.531,28.412 188.831 L 29.567 187.557 29.093 187.112 C 28.486 186.541,28.563 186.519,27.564 187.552 M334.753 187.600 C 334.644 188.526,334.509 188.465,337.448 188.816 C 340.094 189.132,340.000 189.158,340.000 188.121 L 340.000 187.353 338.490 187.220 C 337.659 187.147,336.499 187.027,335.911 186.955 L 334.843 186.823 334.753 187.600 M347.344 187.343 L 345.417 187.543 345.417 188.384 L 345.417 189.224 347.240 189.081 C 350.330 188.838,350.625 188.763,350.625 188.220 C 350.625 186.993,350.650 187.000,347.344 187.343 M47.449 188.623 L 47.110 189.332 48.086 189.580 C 50.248 190.128,52.837 190.118,52.986 189.560 C 53.240 188.610,53.176 188.542,52.031 188.540 C 50.979 188.539,48.888 188.263,48.144 188.027 C 47.888 187.945,47.692 188.113,47.449 188.623 M57.083 188.237 C 56.339 188.380,55.378 188.507,54.948 188.519 C 54.198 188.541,54.167 188.571,54.167 189.271 C 54.167 190.152,54.609 190.204,57.620 189.679 C 59.788 189.301,59.710 189.351,59.378 188.548 C 59.091 187.855,59.077 187.854,57.083 188.237 M277.662 192.954 C 275.555 195.840,275.556 195.835,276.506 196.285 L 277.178 196.603 278.091 195.229 C 278.593 194.473,279.228 193.615,279.502 193.322 C 280.071 192.714,280.103 192.567,279.739 192.225 C 278.808 191.350,278.841 191.339,277.662 192.954 M24.108 192.634 C 23.731 193.378,22.639 196.670,22.739 196.760 C 22.779 196.796,23.107 196.889,23.466 196.966 L 24.119 197.106 24.581 195.587 C 24.834 194.751,25.227 193.706,25.452 193.264 C 25.921 192.344,25.920 192.340,25.054 192.167 C 24.493 192.055,24.370 192.116,24.108 192.634 M22.587 199.509 C 22.811 202.141,22.863 202.292,23.536 202.292 C 24.275 202.292,24.318 202.148,24.211 200.059 C 24.117 198.223,24.213 198.369,22.838 197.982 C 22.471 197.879,22.455 197.973,22.587 199.509 M272.959 202.843 C 272.728 203.857,272.481 205.029,272.410 205.446 L 272.281 206.205 273.119 206.285 C 273.936 206.363,273.960 206.347,274.078 205.630 C 274.144 205.226,274.379 204.151,274.600 203.240 C 275.034 201.447,275.000 201.323,274.026 201.128 L 273.378 200.999 272.959 202.843 M279.740 205.787 C 279.221 205.854,279.167 205.941,279.167 206.710 L 279.167 207.558 280.260 207.427 C 280.862 207.354,282.034 207.294,282.865 207.293 L 284.375 207.292 284.375 206.448 L 284.375 205.605 282.344 205.658 C 281.227 205.688,280.055 205.746,279.740 205.787 M289.933 206.615 C 289.406 207.510,289.575 208.056,290.460 208.317 C 290.952 208.462,291.950 208.894,292.677 209.277 L 294.000 209.974 294.482 209.414 C 295.049 208.755,294.952 208.575,293.627 207.835 C 291.975 206.911,290.119 206.298,289.933 206.615 M272.083 207.113 C 268.837 208.005,268.246 208.520,269.175 209.645 C 269.501 210.041,274.002 208.313,273.875 207.841 C 273.809 207.596,273.754 207.279,273.753 207.135 C 273.750 206.835,273.126 206.826,272.083 207.113 M261.383 211.969 C 259.120 213.341,259.067 213.391,259.349 213.884 C 259.921 214.888,259.848 214.898,262.129 213.507 L 264.310 212.176 263.992 211.505 C 263.584 210.642,263.566 210.645,261.383 211.969 M272.209 212.749 C 272.367 214.347,272.912 216.847,273.132 216.984 C 273.460 217.186,274.628 216.458,274.502 216.130 C 274.355 215.747,273.980 213.454,273.909 212.500 C 273.857 211.802,273.816 211.768,272.977 211.707 L 272.100 211.644 272.209 212.749 M297.135 213.919 L 296.458 213.985 296.458 215.293 C 296.458 216.012,296.319 217.061,296.148 217.623 C 295.977 218.186,295.837 218.667,295.836 218.693 C 295.834 218.718,296.131 218.893,296.495 219.082 C 297.521 219.612,298.129 218.258,298.122 215.458 C 298.118 214.015,298.003 213.836,297.135 213.919 M252.604 217.942 C 250.253 219.696,250.328 219.591,250.891 220.354 L 251.370 221.002 253.029 219.753 C 253.941 219.067,254.861 218.380,255.074 218.228 C 255.449 217.959,255.449 217.931,255.081 217.309 C 254.589 216.475,254.561 216.482,252.604 217.942 M277.339 220.903 C 276.895 221.527,276.890 221.578,277.237 221.840 C 277.848 222.301,279.612 223.157,280.770 223.556 L 281.863 223.932 282.073 223.170 C 282.316 222.291,282.267 222.222,281.146 221.877 C 280.688 221.736,279.749 221.311,279.060 220.932 L 277.808 220.244 277.339 220.903 M291.458 222.071 C 291.286 222.172,290.536 222.366,289.792 222.503 C 289.047 222.640,288.227 222.791,287.969 222.838 C 287.574 222.911,287.500 223.058,287.500 223.767 L 287.500 224.609 288.490 224.475 C 289.654 224.318,291.534 223.873,292.343 223.563 L 292.915 223.344 292.565 222.610 C 292.204 221.854,291.999 221.754,291.458 222.071 M244.583 223.930 L 243.229 224.896 244.660 224.958 C 246.671 225.045,247.281 224.541,246.405 223.514 L 245.938 222.965 244.583 223.930 " stroke="none" fill="#78ceed" fill-rule="evenodd"></path><path id="path2" d="M378.950 144.219 C 379.813 145.139,380.000 145.304,380.000 145.148 C 380.000 145.114,379.555 144.669,379.010 144.158 L 378.021 143.229 378.950 144.219 M360.303 145.260 L 359.479 146.146 360.365 145.322 C 361.188 144.556,361.346 144.375,361.188 144.375 C 361.154 144.375,360.756 144.773,360.303 145.260 M377.700 145.469 C 378.563 146.389,378.750 146.554,378.750 146.398 C 378.750 146.364,378.305 145.919,377.760 145.408 L 376.771 144.479 377.700 145.469 M356.807 151.393 C 356.942 151.489,357.094 151.942,357.144 152.399 C 357.235 153.223,357.236 153.222,357.212 152.308 C 357.195 151.680,357.088 151.360,356.875 151.302 C 356.660 151.245,356.639 151.273,356.807 151.393 M80.145 172.402 C 79.823 172.685,79.643 172.917,79.744 172.917 C 79.845 172.917,80.148 172.682,80.417 172.396 C 81.039 171.733,80.902 171.736,80.145 172.402 M374.786 173.281 L 373.438 174.688 374.844 173.339 C 376.150 172.087,376.345 171.875,376.192 171.875 C 376.160 171.875,375.527 172.508,374.786 173.281 M375.827 174.740 L 374.479 176.146 375.885 174.798 C 376.659 174.056,377.292 173.423,377.292 173.391 C 377.292 173.238,377.080 173.433,375.827 174.740 M55.673 178.125 C 55.673 178.526,55.716 178.690,55.769 178.490 C 55.821 178.289,55.821 177.961,55.769 177.760 C 55.716 177.560,55.673 177.724,55.673 178.125 M68.846 182.135 L 67.813 183.229 68.902 182.199 L 69.992 181.170 70.569 181.679 L 71.146 182.188 70.641 181.615 C 69.990 180.877,70.053 180.859,68.846 182.135 M304.638 183.066 C 304.955 183.114,305.424 183.113,305.680 183.063 C 305.936 183.014,305.677 182.975,305.104 182.976 C 304.531 182.978,304.322 183.018,304.638 183.066 M345.225 188.269 C 345.216 188.749,345.282 189.188,345.373 189.244 C 345.464 189.300,345.504 189.001,345.462 188.579 C 345.348 187.426,345.243 187.289,345.225 188.269 M28.636 188.594 L 27.813 189.479 28.698 188.656 C 29.521 187.890,29.679 187.708,29.521 187.708 C 29.487 187.708,29.089 188.107,28.636 188.594 M52.917 189.640 C 52.917 189.860,52.687 190.002,52.240 190.058 L 51.563 190.142 52.246 190.175 C 52.896 190.207,53.375 189.764,53.047 189.435 C 52.975 189.364,52.917 189.456,52.917 189.640 M279.030 205.946 C 278.962 206.123,278.965 206.326,279.037 206.398 C 279.108 206.469,279.167 206.378,279.167 206.194 C 279.167 205.991,279.389 205.827,279.740 205.774 L 280.313 205.687 279.733 205.656 C 279.381 205.637,279.105 205.751,279.030 205.946 M284.408 206.398 L 284.375 207.276 282.448 207.345 L 280.521 207.414 282.454 207.457 C 284.589 207.504,284.678 207.451,284.527 206.218 C 284.449 205.584,284.439 205.600,284.408 206.398 M296.298 214.583 C 296.298 214.984,296.341 215.148,296.394 214.948 C 296.446 214.747,296.446 214.419,296.394 214.219 C 296.341 214.018,296.298 214.182,296.298 214.583 M287.325 223.594 C 287.357 224.438,287.362 224.445,287.446 223.752 C 287.494 223.352,287.643 222.955,287.777 222.870 C 287.937 222.768,287.895 222.714,287.656 222.712 C 287.361 222.709,287.298 222.876,287.325 223.594 M246.652 223.802 C 246.879 224.104,246.879 224.230,246.652 224.531 C 246.390 224.878,246.396 224.878,246.775 224.531 C 247.166 224.172,247.166 224.161,246.775 223.802 C 246.396 223.455,246.390 223.455,246.652 223.802 " stroke="none" fill="#c1eef9" fill-rule="evenodd"></path><path id="path3" d="M355.261 152.188 C 355.263 152.646,355.306 152.809,355.356 152.550 C 355.406 152.291,355.404 151.916,355.351 151.716 C 355.299 151.517,355.259 151.729,355.261 152.188 M71.296 180.944 C 71.607 181.272,71.900 181.499,71.945 181.447 C 71.991 181.396,71.736 181.128,71.379 180.851 L 70.729 180.348 71.296 180.944 M303.205 181.342 C 303.142 181.507,303.126 181.812,303.171 182.019 C 303.222 182.254,303.294 182.142,303.361 181.719 C 303.475 181.009,303.401 180.831,303.205 181.342 M48.807 183.333 C 48.807 183.849,48.847 184.060,48.897 183.802 C 48.947 183.544,48.947 183.122,48.897 182.865 C 48.847 182.607,48.807 182.818,48.807 183.333 M45.052 182.852 C 45.253 182.904,45.581 182.904,45.781 182.852 C 45.982 182.800,45.818 182.757,45.417 182.757 C 45.016 182.757,44.852 182.800,45.052 182.852 M47.761 183.438 C 47.763 183.896,47.806 184.059,47.856 183.800 C 47.906 183.541,47.904 183.166,47.851 182.966 C 47.799 182.767,47.759 182.979,47.761 183.438 M281.615 205.564 C 281.872 205.613,282.294 205.613,282.552 205.564 C 282.810 205.514,282.599 205.473,282.083 205.473 C 281.568 205.473,281.357 205.514,281.615 205.564 " stroke="none" fill="#d8f6fc" fill-rule="evenodd"></path><path id="path4" d="" stroke="none" fill="#d4ecfc" fill-rule="evenodd"></path></g></svg>