<svg id="svg" version="1.1" xmlns="http://www.w3.org/2000/svg" xmlns:xlink="http://www.w3.org/1999/xlink" width="400" height="225" viewBox="0, 0, 400,225"><g id="svgg"><path id="path0" d="M0.000 112.500 L 0.000 225.000 200.000 225.000 L 400.000 225.000 400.000 112.500 L 400.000 0.000 200.000 0.000 L 0.000 0.000 0.000 112.500 M356.402 24.115 C 356.056 28.947,350.420 38.947,345.833 42.867 C 343.339 45.000,340.266 46.458,338.269 46.458 L 337.439 46.458 337.560 48.490 C 338.618 66.327,361.681 73.315,372.638 59.119 C 381.671 47.416,374.685 29.720,360.252 27.746 C 358.835 27.552,358.643 27.455,358.811 27.017 C 359.072 26.336,363.804 27.589,366.691 29.104 C 377.632 34.840,380.948 49.708,373.439 59.360 C 361.544 74.650,338.078 67.321,336.667 47.876 C 336.565 46.466,336.325 44.469,336.134 43.438 C 334.103 32.455,340.828 24.607,353.958 22.635 C 354.245 22.592,354.938 22.544,355.499 22.528 L 356.518 22.500 356.402 24.115 M352.604 23.670 C 341.308 25.696,335.264 32.937,336.770 42.637 L 336.927 43.646 337.281 42.188 C 338.240 38.243,342.430 31.516,343.285 32.546 C 343.498 32.802,343.330 33.094,342.308 34.252 C 339.738 37.163,338.157 40.653,337.588 44.668 L 337.443 45.690 338.700 45.559 C 344.607 44.942,352.911 35.124,355.307 25.925 C 356.024 23.172,355.909 23.077,352.604 23.670 M359.502 29.875 C 360.112 30.159,360.787 30.328,361.083 30.271 C 361.953 30.105,362.363 30.718,362.216 31.967 C 362.117 32.811,362.174 33.148,362.503 33.647 C 363.344 34.923,362.843 36.949,361.459 37.874 C 360.423 38.567,360.367 38.764,360.743 40.414 C 361.136 42.141,361.326 42.311,363.665 43.033 C 365.463 43.588,366.250 44.032,366.250 44.491 C 366.250 44.664,366.490 45.279,366.783 45.857 C 367.361 46.998,367.381 47.649,366.848 47.983 C 366.222 48.375,363.204 46.959,361.936 45.679 C 360.755 44.486,360.690 44.467,358.931 44.831 C 357.393 45.149,356.805 44.908,356.448 43.816 C 356.305 43.379,355.981 42.826,355.727 42.589 C 354.215 41.172,353.652 36.458,354.994 36.458 C 355.302 36.458,355.374 36.157,355.490 34.380 C 355.784 29.903,356.891 28.659,359.502 29.875 M357.010 30.781 C 356.581 31.620,356.405 32.572,356.268 34.792 L 356.146 36.771 355.467 37.070 C 354.840 37.346,354.797 37.426,354.908 38.111 C 355.212 39.972,355.861 41.688,356.466 42.227 C 356.805 42.530,357.083 42.931,357.083 43.120 C 357.083 44.065,357.556 44.261,359.148 43.976 C 361.049 43.636,361.476 43.754,362.175 44.809 C 362.632 45.501,363.088 45.827,364.521 46.489 C 366.615 47.457,366.700 47.427,365.972 45.987 C 365.666 45.384,365.417 44.777,365.417 44.639 C 365.417 44.501,364.630 44.148,363.668 43.855 C 360.663 42.938,359.824 41.934,359.801 39.227 C 359.791 38.089,359.842 38.006,361.033 37.233 C 362.164 36.499,362.435 35.278,361.776 33.881 C 361.389 33.060,361.301 32.607,361.393 31.927 C 361.506 31.097,361.263 30.723,360.946 31.237 C 360.879 31.344,360.302 31.157,359.662 30.820 C 358.159 30.029,357.400 30.018,357.010 30.781 M360.149 46.449 C 360.757 46.725,361.069 47.016,361.164 47.393 C 362.200 51.522,358.884 52.918,357.325 49.010 C 356.174 46.125,357.261 45.139,360.149 46.449 M357.491 47.344 C 357.595 47.602,357.903 48.375,358.175 49.062 C 358.684 50.346,358.975 50.562,359.889 50.333 C 360.945 50.068,360.824 47.474,359.738 47.096 C 358.503 46.665,357.272 46.801,357.491 47.344 M371.743 47.579 C 373.049 48.125,373.594 49.621,373.566 52.585 C 373.552 54.154,371.090 53.394,370.628 51.679 C 370.423 50.917,369.730 50.000,369.360 50.000 C 368.747 50.000,368.281 48.170,368.749 47.605 C 369.082 47.204,370.809 47.189,371.743 47.579 M369.365 48.131 C 369.018 48.346,369.404 48.980,370.296 49.661 C 370.796 50.042,371.103 50.499,371.264 51.099 C 371.563 52.219,371.800 52.500,372.444 52.500 C 372.855 52.500,372.930 52.425,372.811 52.135 C 372.729 51.935,372.636 51.175,372.605 50.447 C 372.531 48.689,370.644 47.341,369.365 48.131 M343.245 48.548 C 343.554 48.665,344.073 48.985,344.397 49.258 C 344.862 49.649,345.153 49.732,345.775 49.651 C 347.796 49.386,348.783 51.069,347.725 52.979 C 347.151 54.015,347.028 54.449,347.057 55.341 C 347.108 56.886,344.344 59.693,343.728 58.721 C 343.454 58.290,343.473 58.265,344.492 57.724 C 345.881 56.988,346.250 56.421,346.251 55.024 C 346.252 54.074,346.369 53.678,346.875 52.917 C 347.966 51.276,347.503 50.417,345.527 50.416 C 344.656 50.416,344.356 50.308,343.750 49.778 C 342.993 49.116,342.007 49.039,340.136 49.495 C 339.631 49.618,339.553 49.582,339.616 49.253 C 339.751 48.556,342.076 48.103,343.245 48.548 M364.465 48.461 C 364.867 48.615,366.613 50.874,366.887 51.594 C 367.867 54.171,364.431 58.277,362.229 57.162 C 360.554 56.314,360.339 55.215,361.563 53.750 C 362.378 52.774,362.384 52.751,362.058 51.664 C 361.485 49.753,362.906 47.863,364.465 48.461 M363.191 49.508 C 362.849 50.030,362.817 50.418,362.953 52.422 C 363.003 53.163,362.904 53.401,362.235 54.142 C 361.426 55.037,361.374 55.163,361.588 55.720 C 362.049 56.922,363.706 56.913,364.772 55.702 C 366.473 53.769,366.593 52.275,365.193 50.417 C 363.944 48.757,363.743 48.666,363.191 49.508 M356.698 50.642 C 357.636 51.144,357.987 53.019,357.265 53.666 C 357.021 53.884,356.604 54.404,356.338 54.822 C 356.057 55.265,355.357 55.867,354.659 56.266 C 354.001 56.643,352.934 57.496,352.288 58.163 C 350.806 59.691,349.167 59.851,349.167 58.467 C 349.167 58.411,350.066 57.397,351.165 56.214 C 353.176 54.048,353.958 52.889,353.958 52.076 C 353.958 50.971,355.655 50.084,356.698 50.642 M355.058 51.500 C 354.938 51.649,354.774 52.099,354.693 52.500 C 354.486 53.522,353.749 54.586,351.849 56.602 C 350.947 57.561,350.208 58.427,350.208 58.528 C 350.208 58.979,351.110 58.403,351.957 57.411 C 352.513 56.760,353.392 56.055,354.150 55.651 C 354.845 55.280,355.522 54.771,355.654 54.520 C 355.786 54.268,356.166 53.750,356.498 53.368 L 357.101 52.673 356.718 52.014 C 356.302 51.299,355.436 51.031,355.058 51.500 M369.936 54.019 C 370.657 54.420,372.072 56.561,371.841 56.902 C 371.690 57.126,371.526 57.035,371.084 56.482 C 369.295 54.244,368.868 54.076,369.091 55.700 C 369.208 56.555,369.175 56.624,368.252 57.436 C 367.687 57.934,367.292 58.461,367.292 58.717 C 367.292 59.227,366.725 59.581,365.899 59.588 C 365.022 59.595,363.684 60.277,362.617 61.261 C 361.528 62.264,361.422 62.573,362.240 62.355 C 362.555 62.271,363.094 62.221,363.438 62.244 C 363.781 62.267,364.378 62.183,364.764 62.056 C 365.321 61.874,365.502 61.885,365.641 62.110 C 365.908 62.542,364.955 62.940,363.470 63.017 C 362.765 63.053,362.094 63.104,361.979 63.129 C 360.967 63.350,360.599 62.611,361.225 61.611 C 362.009 60.358,364.119 59.009,365.606 58.810 C 366.240 58.724,366.453 58.591,366.546 58.222 C 366.612 57.959,367.048 57.441,367.515 57.072 C 368.348 56.412,368.362 56.380,368.227 55.403 C 368.098 54.462,368.123 54.389,368.681 54.087 C 369.392 53.701,369.367 53.702,369.936 54.019 M47.535 156.990 C 56.993 157.405,56.500 157.208,58.462 161.350 C 59.519 163.582,59.400 163.498,60.521 162.807 C 61.841 161.994,63.373 162.609,63.009 163.806 C 62.906 164.144,57.848 172.477,57.367 173.101 C 57.248 173.255,47.056 172.292,46.680 172.090 C 45.790 171.614,45.940 171.226,47.471 170.046 L 47.963 169.667 46.823 167.396 L 45.683 165.124 45.167 165.947 C 44.884 166.400,43.545 168.599,42.192 170.833 C 40.839 173.068,39.707 174.927,39.676 174.964 C 39.645 175.002,37.273 173.614,34.404 171.880 L 29.188 168.728 31.806 164.416 C 35.682 158.032,35.768 157.914,37.055 157.247 C 38.386 156.556,37.920 156.567,47.535 156.990 M38.201 157.899 C 36.670 158.282,36.422 158.586,32.834 164.463 C 30.667 168.013,30.463 168.430,30.786 168.647 C 31.663 169.238,38.892 173.518,39.114 173.579 C 39.250 173.616,40.686 171.492,42.305 168.860 L 45.249 164.074 44.343 162.213 C 42.522 158.470,40.787 157.251,38.201 157.899 M43.182 158.385 C 43.761 159.015,48.934 169.378,48.951 169.942 C 48.955 170.082,48.584 170.410,48.127 170.671 C 46.726 171.471,46.838 171.504,52.188 171.878 C 53.906 171.998,55.641 172.144,56.042 172.203 L 56.771 172.308 58.320 169.852 C 60.872 165.804,62.083 163.775,62.083 163.548 C 62.083 163.166,61.168 163.322,60.313 163.849 C 59.088 164.603,59.069 164.589,57.723 161.905 C 56.339 159.144,55.666 158.419,54.322 158.243 C 53.428 158.125,44.885 157.708,43.376 157.708 L 42.559 157.708 43.182 158.385 M66.573 174.687 C 71.273 182.210,71.328 180.634,66.016 190.907 C 61.388 199.858,61.868 199.375,57.611 199.375 L 55.000 199.375 55.000 200.610 C 55.000 201.965,54.682 202.500,53.876 202.500 C 53.242 202.500,53.009 202.205,49.825 197.377 L 47.065 193.192 49.656 188.737 C 52.341 184.121,52.755 183.612,53.643 183.835 C 54.115 183.953,54.167 184.069,54.167 185.004 L 54.167 186.042 56.674 186.042 C 58.998 186.042,59.167 186.015,58.986 185.677 C 58.878 185.477,57.512 183.261,55.951 180.753 C 54.389 178.246,53.138 176.170,53.170 176.140 C 53.403 175.927,63.260 169.795,63.372 169.794 C 63.450 169.793,64.891 171.995,66.573 174.687 M58.750 173.650 C 56.516 175.072,54.596 176.270,54.485 176.311 C 54.373 176.352,55.638 178.558,57.296 181.213 L 60.310 186.042 62.915 186.040 C 67.741 186.036,70.130 183.817,68.890 180.489 C 68.514 179.479,63.271 171.040,63.027 171.053 C 62.909 171.059,60.984 172.227,58.750 173.650 M37.070 177.135 C 39.714 182.011,39.883 182.502,39.094 183.019 C 38.642 183.316,38.537 183.301,37.688 182.828 L 36.771 182.316 35.481 184.384 L 34.192 186.452 40.065 186.507 L 45.938 186.563 45.993 192.656 L 46.048 198.750 39.847 198.748 C 31.074 198.745,32.051 199.404,26.354 189.650 L 22.604 183.229 22.604 181.764 C 22.604 180.343,22.642 180.236,23.854 178.222 C 25.351 175.737,25.329 175.990,24.115 175.220 C 23.306 174.707,23.125 174.482,23.125 173.988 C 23.125 172.887,23.395 172.822,28.521 172.701 C 31.110 172.639,33.528 172.569,33.892 172.544 C 34.552 172.500,34.569 172.524,37.070 177.135 M24.204 173.893 C 24.241 174.087,24.761 174.539,25.359 174.898 L 26.447 175.551 25.068 177.932 C 22.776 181.887,22.690 181.345,26.695 188.249 L 29.679 193.393 29.907 192.257 C 30.032 191.633,30.211 190.986,30.306 190.821 C 31.540 188.655,36.362 181.251,36.537 181.253 C 36.666 181.254,37.169 181.483,37.656 181.761 C 38.794 182.412,38.887 182.693,36.342 177.784 L 34.142 173.542 29.139 173.542 C 24.556 173.542,24.142 173.571,24.204 173.893 M52.900 185.133 C 52.294 185.848,48.311 192.961,48.375 193.215 C 48.473 193.605,53.628 201.441,53.793 201.450 C 53.874 201.455,53.968 200.779,54.001 199.948 L 54.063 198.438 57.328 198.333 C 61.418 198.203,60.879 198.690,64.467 191.883 C 67.746 185.663,67.567 186.186,66.248 186.687 C 65.310 187.043,64.600 187.083,59.279 187.083 L 53.354 187.083 53.292 185.914 C 53.233 184.820,53.208 184.769,52.900 185.133 M32.188 189.539 L 30.938 191.563 30.938 193.542 C 30.938 197.563,31.370 197.792,39.115 197.876 L 45.000 197.940 45.000 192.720 L 45.000 187.500 39.219 187.508 L 33.438 187.515 32.188 189.539 " stroke="none" fill="#fbfcfc" fill-rule="evenodd"></path><path id="path1" d="M353.557 22.831 C 340.548 24.724,333.608 33.605,336.476 44.688 C 336.595 45.146,336.775 46.740,336.877 48.229 C 338.249 68.330,363.987 74.620,374.579 57.443 C 381.999 45.409,374.038 28.849,359.948 27.012 C 358.184 26.782,358.718 27.388,360.527 27.669 C 374.154 29.788,381.365 46.153,373.769 57.723 C 363.289 73.686,338.702 67.403,337.368 48.421 L 337.232 46.488 338.043 46.363 C 341.005 45.906,342.727 45.186,344.951 43.476 C 350.327 39.339,356.548 28.135,356.280 23.073 C 356.246 22.415,356.348 22.424,353.557 22.831 M355.759 24.245 C 355.460 26.787,354.006 30.293,351.477 34.567 C 347.362 41.520,343.069 45.212,338.469 45.752 L 337.324 45.887 337.429 44.975 C 337.894 40.949,339.683 36.957,342.308 34.084 C 343.036 33.288,343.326 32.826,343.186 32.686 C 342.320 31.820,338.240 38.620,337.364 42.389 C 336.879 44.472,336.653 44.038,336.511 40.753 C 336.202 33.589,339.309 28.658,346.112 25.517 C 348.433 24.445,353.218 23.208,355.289 23.144 L 355.891 23.125 355.759 24.245 M356.935 29.750 C 356.289 30.160,355.779 31.957,355.673 34.195 L 355.567 36.438 354.971 36.569 C 354.579 36.655,354.333 36.867,354.252 37.187 C 353.988 38.239,355.120 42.060,355.847 42.569 C 356.068 42.724,356.356 43.170,356.488 43.561 C 356.941 44.905,357.320 45.023,359.673 44.551 L 360.874 44.309 361.733 45.314 C 362.658 46.397,365.665 48.000,366.538 47.875 C 367.400 47.752,367.253 46.962,365.851 44.167 C 365.765 43.995,364.858 43.569,363.837 43.220 C 361.236 42.333,361.104 42.239,360.736 41.000 C 360.173 39.106,360.283 38.410,361.221 37.931 C 362.544 37.257,363.297 35.075,362.576 34.009 C 362.328 33.644,362.151 32.912,362.084 31.979 L 361.979 30.521 361.250 30.494 C 360.849 30.480,360.099 30.271,359.583 30.030 C 358.635 29.587,357.397 29.456,356.935 29.750 M359.493 30.615 C 360.366 31.055,360.785 31.168,360.972 31.013 C 361.458 30.610,361.682 31.032,361.543 32.086 C 361.433 32.910,361.491 33.232,361.850 33.814 C 362.678 35.153,362.242 36.782,360.867 37.483 C 359.645 38.106,359.534 38.963,360.345 41.512 C 360.708 42.656,360.885 42.778,363.418 43.640 C 364.438 43.987,365.346 44.411,365.435 44.583 C 366.188 46.032,366.728 47.300,366.633 47.394 C 366.229 47.799,362.839 45.858,361.997 44.740 C 361.336 43.862,360.739 43.760,358.752 44.186 C 357.539 44.446,357.201 44.288,357.019 43.375 C 356.955 43.059,356.622 42.505,356.277 42.144 C 355.101 40.914,354.332 37.177,355.228 37.049 C 355.955 36.945,356.243 36.147,356.247 34.226 C 356.254 30.414,357.140 29.428,359.493 30.615 M357.292 46.310 C 356.528 46.708,357.139 49.377,358.294 50.687 C 358.819 51.283,360.360 51.097,360.898 50.374 C 361.619 49.406,361.193 47.101,360.208 46.633 C 359.142 46.126,357.905 45.989,357.292 46.310 M359.674 46.960 C 361.212 47.603,360.973 50.625,359.384 50.625 C 358.774 50.625,357.292 47.993,357.292 46.911 C 357.292 46.569,358.814 46.601,359.674 46.960 M368.967 47.659 C 368.298 48.201,368.523 49.007,369.626 50.015 C 370.172 50.515,370.595 51.153,370.811 51.802 C 371.536 53.988,373.962 53.744,373.355 51.545 C 373.240 51.127,373.197 50.525,373.260 50.208 C 373.634 48.341,370.456 46.454,368.967 47.659 M371.552 48.212 C 372.475 48.597,372.625 48.934,372.789 50.990 L 372.926 52.708 372.406 52.708 C 371.817 52.708,371.365 52.128,371.150 51.094 C 371.056 50.646,370.698 50.163,370.088 49.663 C 368.399 48.279,369.382 47.305,371.552 48.212 M363.172 48.473 C 362.388 48.788,361.867 50.862,362.291 51.977 C 362.498 52.521,362.092 53.750,361.706 53.750 C 360.955 53.750,360.665 55.616,361.302 56.351 C 364.140 59.627,368.513 53.910,365.933 50.296 C 364.667 48.522,364.055 48.118,363.172 48.473 M340.268 48.773 C 339.833 48.899,339.637 49.065,339.708 49.250 C 339.801 49.490,339.967 49.490,340.775 49.247 C 342.320 48.782,342.483 48.815,344.183 49.958 C 344.729 50.324,345.077 50.409,345.672 50.321 C 346.325 50.223,346.556 50.301,347.127 50.811 L 347.805 51.417 347.445 52.115 C 347.247 52.499,346.894 53.141,346.660 53.542 C 346.332 54.104,346.262 54.486,346.355 55.208 C 346.491 56.267,346.114 56.824,344.569 57.847 C 343.310 58.680,343.434 59.029,344.748 58.352 C 346.309 57.547,346.986 56.589,346.928 55.265 C 346.885 54.272,346.971 53.950,347.501 53.124 C 348.703 51.250,347.956 49.792,345.793 49.792 C 344.923 49.792,344.620 49.684,344.031 49.167 C 343.263 48.492,341.776 48.337,340.268 48.773 M365.116 50.156 C 366.764 52.224,366.737 53.403,364.990 55.613 C 363.984 56.885,363.459 57.054,362.316 56.471 C 361.192 55.897,361.156 55.193,362.188 53.958 C 362.947 53.050,363.064 52.499,362.702 51.546 C 362.550 51.147,362.558 50.761,362.729 50.230 C 363.266 48.562,363.830 48.544,365.116 50.156 M354.722 50.887 C 354.525 51.030,354.233 51.645,354.073 52.253 C 353.742 53.505,353.422 53.958,351.062 56.514 C 349.269 58.454,349.094 58.839,349.850 59.184 C 350.557 59.506,351.321 59.128,352.454 57.894 C 352.995 57.305,353.930 56.545,354.532 56.204 C 355.459 55.679,356.758 54.301,357.559 52.993 C 358.300 51.780,355.918 50.012,354.722 50.887 M356.388 51.349 C 357.185 51.907,357.176 52.612,356.360 53.681 C 355.956 54.210,355.625 54.704,355.625 54.778 C 355.625 54.853,355.012 55.272,354.263 55.710 C 353.513 56.149,352.512 56.968,352.038 57.530 C 351.250 58.464,350.369 58.980,350.070 58.681 C 350.005 58.616,350.721 57.723,351.661 56.698 C 353.778 54.389,354.309 53.617,354.566 52.473 C 354.860 51.165,355.533 50.750,356.388 51.349 M368.609 54.268 C 368.211 54.547,368.189 54.662,368.387 55.442 C 368.606 56.305,368.604 56.310,367.649 57.164 C 367.122 57.635,366.661 58.207,366.624 58.435 C 366.573 58.754,366.337 58.881,365.606 58.986 C 363.140 59.339,359.856 62.417,361.339 62.986 C 361.688 63.120,364.729 62.823,365.269 62.602 C 365.697 62.427,365.617 61.935,365.182 62.064 C 364.722 62.200,361.601 62.503,361.517 62.420 C 361.067 61.969,364.056 59.832,365.579 59.515 C 366.985 59.223,367.360 59.019,367.210 58.628 C 367.144 58.458,367.482 58.022,368.041 57.556 C 368.949 56.798,368.980 56.735,368.927 55.729 C 368.844 54.168,369.468 54.163,370.616 55.717 C 371.386 56.760,371.875 57.148,371.875 56.718 C 371.875 56.475,370.447 54.511,370.058 54.219 C 369.601 53.875,369.149 53.890,368.609 54.268 M38.333 156.864 C 37.396 157.050,36.474 157.540,35.899 158.157 C 35.129 158.984,29.351 168.602,29.525 168.768 C 29.800 169.033,39.369 174.792,39.533 174.792 C 39.618 174.791,40.996 172.629,42.595 169.986 C 44.194 167.342,45.559 165.145,45.627 165.103 C 45.695 165.061,46.278 166.086,46.922 167.380 L 48.094 169.733 47.172 170.383 C 45.177 171.790,45.881 172.128,51.771 172.593 C 54.063 172.773,56.230 172.969,56.588 173.028 C 57.245 173.135,62.405 165.553,62.831 163.854 C 63.150 162.585,61.796 162.140,60.295 163.020 L 59.407 163.541 58.338 161.303 C 56.402 157.251,56.887 157.434,47.188 157.087 C 43.865 156.968,40.677 156.836,40.104 156.795 C 39.531 156.753,38.734 156.784,38.333 156.864 M50.217 157.912 C 56.089 158.173,55.911 158.082,57.756 161.771 C 58.443 163.146,59.031 164.299,59.062 164.334 C 59.094 164.368,59.696 164.094,60.401 163.725 C 61.515 163.141,61.723 163.092,61.982 163.352 C 62.258 163.627,58.066 170.920,56.977 172.058 C 56.743 172.303,56.035 172.293,52.257 171.995 C 46.454 171.536,46.391 171.515,48.024 170.623 C 48.548 170.337,48.922 169.997,48.868 169.856 C 47.924 167.398,43.694 159.134,43.003 158.401 L 42.151 157.496 44.044 157.609 C 45.086 157.671,47.863 157.808,50.217 157.912 M41.395 158.236 C 42.587 158.830,43.044 159.428,44.432 162.208 L 45.358 164.063 42.519 168.691 C 40.957 171.237,39.568 173.432,39.433 173.567 C 39.203 173.797,30.842 169.061,30.500 168.507 C 30.353 168.271,35.306 160.126,36.195 159.140 C 37.582 157.604,39.468 157.276,41.395 158.236 M58.424 172.929 C 55.681 174.650,53.413 176.127,53.384 176.210 C 53.355 176.294,54.690 178.551,56.353 181.226 C 58.015 183.901,59.375 186.126,59.375 186.170 C 59.375 186.214,58.208 186.250,56.782 186.250 L 54.188 186.250 54.125 185.156 C 54.054 183.918,53.199 183.487,52.453 184.313 C 51.760 185.081,47.272 193.026,47.354 193.340 C 47.483 193.834,52.795 201.712,53.306 202.168 C 54.181 202.949,54.792 202.359,54.792 200.734 L 54.792 199.375 57.403 199.375 C 61.695 199.375,61.363 199.710,66.045 190.654 C 70.501 182.035,70.593 181.738,69.491 179.606 C 69.272 179.183,63.644 170.094,63.448 169.847 C 63.427 169.821,61.166 171.207,58.424 172.929 M65.755 174.950 C 69.038 180.297,69.226 180.681,69.226 182.043 C 69.226 184.721,66.902 186.252,62.846 186.246 L 60.313 186.242 57.328 181.450 C 55.686 178.814,54.374 176.564,54.413 176.450 C 54.476 176.261,62.880 170.850,63.125 170.841 C 63.182 170.838,64.366 172.687,65.755 174.950 M24.836 172.896 C 22.561 173.113,22.508 174.260,24.715 175.521 L 25.367 175.894 24.062 178.046 C 21.819 181.745,21.806 181.683,26.595 189.882 C 32.041 199.203,31.183 198.623,39.635 198.709 L 45.833 198.773 45.833 192.720 L 45.833 186.667 39.978 186.667 C 34.506 186.667,34.131 186.643,34.261 186.305 C 34.484 185.722,36.691 182.292,36.842 182.292 C 36.917 182.293,37.286 182.480,37.661 182.709 C 38.518 183.231,38.798 183.231,39.273 182.706 C 39.707 182.226,39.321 181.348,36.139 175.573 L 34.560 172.708 30.353 172.740 C 28.039 172.758,25.556 172.828,24.836 172.896 M36.525 177.919 C 37.765 180.324,38.723 182.292,38.653 182.292 C 38.584 182.292,38.053 182.051,37.472 181.757 C 36.892 181.463,36.396 181.252,36.371 181.288 C 32.835 186.401,30.000 191.545,30.000 192.847 C 30.000 194.173,30.056 194.250,26.449 188.004 C 22.615 181.366,22.699 181.874,24.821 178.193 C 25.638 176.774,26.271 175.580,26.227 175.540 C 26.182 175.500,25.654 175.166,25.052 174.799 C 23.096 173.604,23.306 173.541,29.253 173.544 L 34.271 173.546 36.525 177.919 M59.542 186.870 C 65.203 186.866,65.804 186.832,66.615 186.464 C 67.760 185.944,67.933 185.488,64.551 191.914 C 60.909 198.835,61.376 198.414,57.240 198.505 L 54.167 198.572 54.167 200.003 C 54.167 202.176,53.970 202.019,50.929 197.417 L 48.106 193.145 50.227 189.437 C 51.394 187.398,52.547 185.448,52.789 185.104 L 53.229 184.479 53.292 185.677 L 53.354 186.875 59.542 186.870 M45.000 192.827 L 45.000 198.154 39.219 198.088 C 33.144 198.017,33.001 197.996,31.907 197.005 C 30.999 196.182,30.744 195.429,30.737 193.542 L 30.729 191.771 32.050 189.635 L 33.371 187.500 39.185 187.500 L 45.000 187.500 45.000 192.827 " stroke="none" fill="#71caec" fill-rule="evenodd"></path><path id="path2" d="M340.091 28.802 L 339.479 29.479 340.156 28.867 C 340.787 28.297,340.929 28.125,340.768 28.125 C 340.732 28.125,340.428 28.430,340.091 28.802 M361.174 30.974 C 361.304 31.068,361.462 31.333,361.525 31.563 C 361.615 31.891,361.631 31.872,361.601 31.475 C 361.580 31.197,361.422 30.932,361.250 30.886 C 361.044 30.830,361.018 30.860,361.174 30.974 M335.882 41.250 C 335.882 41.651,335.925 41.815,335.977 41.615 C 336.029 41.414,336.029 41.086,335.977 40.885 C 335.925 40.685,335.882 40.849,335.882 41.250 M377.344 45.729 C 377.347 46.188,377.389 46.350,377.439 46.091 C 377.489 45.832,377.487 45.457,377.435 45.258 C 377.383 45.059,377.342 45.271,377.344 45.729 M336.735 47.396 C 336.736 48.198,336.774 48.501,336.819 48.068 C 336.864 47.636,336.863 46.980,336.817 46.610 C 336.771 46.240,336.734 46.594,336.735 47.396 M337.344 48.229 C 337.347 48.688,337.389 48.850,337.439 48.591 C 337.489 48.332,337.487 47.957,337.435 47.758 C 337.383 47.559,337.342 47.771,337.344 48.229 M341.719 48.477 C 341.919 48.529,342.247 48.529,342.448 48.477 C 342.648 48.425,342.484 48.382,342.083 48.382 C 341.682 48.382,341.518 48.425,341.719 48.477 M341.719 49.102 C 341.919 49.154,342.247 49.154,342.448 49.102 C 342.648 49.050,342.484 49.007,342.083 49.007 C 341.682 49.007,341.518 49.050,341.719 49.102 M359.010 51.185 C 359.211 51.238,359.539 51.238,359.740 51.185 C 359.940 51.133,359.776 51.090,359.375 51.090 C 358.974 51.090,358.810 51.133,359.010 51.185 M351.133 56.302 L 350.521 56.979 351.198 56.367 C 351.829 55.797,351.971 55.625,351.810 55.625 C 351.774 55.625,351.469 55.930,351.133 56.302 M40.052 156.810 C 40.253 156.863,40.581 156.863,40.781 156.810 C 40.982 156.758,40.818 156.715,40.417 156.715 C 40.016 156.715,39.852 156.758,40.052 156.810 M45.052 157.019 C 45.253 157.071,45.581 157.071,45.781 157.019 C 45.982 156.966,45.818 156.923,45.417 156.923 C 45.016 156.923,44.852 156.966,45.052 157.019 M50.052 157.227 C 50.253 157.279,50.581 157.279,50.781 157.227 C 50.982 157.175,50.818 157.132,50.417 157.132 C 50.016 157.132,49.852 157.175,50.052 157.227 M42.450 157.647 C 42.709 157.697,43.084 157.695,43.284 157.643 C 43.483 157.591,43.271 157.550,42.813 157.553 C 42.354 157.555,42.191 157.598,42.450 157.647 M47.344 157.852 C 47.544 157.904,47.872 157.904,48.073 157.852 C 48.273 157.800,48.109 157.757,47.708 157.757 C 47.307 157.757,47.143 157.800,47.344 157.852 M52.135 158.060 C 52.336 158.113,52.664 158.113,52.865 158.060 C 53.065 158.008,52.901 157.965,52.500 157.965 C 52.099 157.965,51.935 158.008,52.135 158.060 M24.638 172.858 C 24.955 172.906,25.424 172.904,25.680 172.855 C 25.936 172.806,25.677 172.766,25.104 172.768 C 24.531 172.769,24.322 172.810,24.638 172.858 M37.031 186.614 C 38.664 186.649,41.336 186.649,42.969 186.614 C 44.602 186.579,43.266 186.550,40.000 186.550 C 36.734 186.550,35.398 186.579,37.031 186.614 M56.198 187.031 C 57.831 187.066,60.503 187.066,62.135 187.031 C 63.768 186.996,62.432 186.967,59.167 186.967 C 55.901 186.967,54.565 186.996,56.198 187.031 M29.840 193.125 C 29.840 193.526,29.883 193.690,29.935 193.490 C 29.988 193.289,29.988 192.961,29.935 192.760 C 29.883 192.560,29.840 192.724,29.840 193.125 M54.854 200.417 C 54.854 201.047,54.893 201.305,54.941 200.990 C 54.989 200.674,54.989 200.159,54.941 199.844 C 54.893 199.529,54.854 199.786,54.854 200.417 " stroke="none" fill="#b8e4f5" fill-rule="evenodd"></path><path id="path3" d="M45.925 192.708 C 45.925 196.089,45.954 197.471,45.989 195.781 C 46.024 194.091,46.024 191.326,45.989 189.635 C 45.954 187.945,45.925 189.328,45.925 192.708 M54.028 200.000 C 54.028 200.859,54.065 201.211,54.110 200.781 C 54.155 200.352,54.155 199.648,54.110 199.219 C 54.065 198.789,54.028 199.141,54.028 200.000 " stroke="none" fill="#d4ecfc" fill-rule="evenodd"></path><path id="path4" d="M355.483 35.000 C 355.483 35.745,355.521 36.049,355.567 35.677 C 355.614 35.305,355.614 34.695,355.567 34.323 C 355.521 33.951,355.483 34.255,355.483 35.000 M336.521 39.792 C 336.521 40.422,336.560 40.680,336.608 40.365 C 336.655 40.049,336.655 39.534,336.608 39.219 C 336.560 38.904,336.521 39.161,336.521 39.792 M346.239 41.406 L 345.521 42.188 346.302 41.470 C 347.029 40.801,347.179 40.625,347.020 40.625 C 346.985 40.625,346.634 40.977,346.239 41.406 M357.242 66.814 C 357.501 66.864,357.876 66.862,358.075 66.810 C 358.275 66.758,358.063 66.717,357.604 66.719 C 357.146 66.722,356.983 66.764,357.242 66.814 M41.302 156.810 C 41.503 156.863,41.831 156.863,42.031 156.810 C 42.232 156.758,42.068 156.715,41.667 156.715 C 41.266 156.715,41.102 156.758,41.302 156.810 M46.302 157.019 C 46.503 157.071,46.831 157.071,47.031 157.019 C 47.232 156.966,47.068 156.923,46.667 156.923 C 46.266 156.923,46.102 156.966,46.302 157.019 M51.302 157.227 C 51.503 157.279,51.831 157.279,52.031 157.227 C 52.232 157.175,52.068 157.132,51.667 157.132 C 51.266 157.132,51.102 157.175,51.302 157.227 M33.492 172.647 C 33.751 172.697,34.126 172.695,34.325 172.643 C 34.525 172.591,34.313 172.550,33.854 172.553 C 33.396 172.555,33.233 172.598,33.492 172.647 M55.365 186.196 C 56.081 186.237,57.253 186.237,57.969 186.196 C 58.685 186.155,58.099 186.122,56.667 186.122 C 55.234 186.122,54.648 186.155,55.365 186.196 M61.518 186.196 C 62.181 186.237,63.212 186.237,63.810 186.195 C 64.407 186.153,63.865 186.119,62.604 186.120 C 61.344 186.120,60.855 186.154,61.518 186.196 M37.448 198.072 C 38.852 198.108,41.148 198.108,42.552 198.072 C 43.956 198.036,42.807 198.007,40.000 198.007 C 37.193 198.007,36.044 198.036,37.448 198.072 M55.469 198.488 C 56.242 198.528,57.508 198.528,58.281 198.488 C 59.055 198.448,58.422 198.415,56.875 198.415 C 55.328 198.415,54.695 198.448,55.469 198.488 " stroke="none" fill="#d7f4fc" fill-rule="evenodd"></path></g></svg>