<?xml version="1.0" standalone="no"?>
<!DOCTYPE svg PUBLIC "-//W3C//DTD SVG 20010904//EN"
 "http://www.w3.org/TR/2001/REC-SVG-20010904/DTD/svg10.dtd">
<svg version="1.0" xmlns="http://www.w3.org/2000/svg"
 width="500.000000pt" height="500.000000pt" viewBox="0 0 500.000000 500.000000"
 preserveAspectRatio="xMidYMid meet">

<g transform="translate(0.000000,500.000000) scale(0.100000,-0.100000)"
fill="#000000" stroke="none">
<path d="M2055 4683 c9 -16 43 -71 75 -123 32 -52 75 -122 95 -155 20 -33 62
-103 95 -155 32 -52 81 -133 109 -180 28 -47 71 -116 96 -155 24 -38 61 -99
82 -134 21 -35 43 -71 48 -80 6 -9 28 -45 49 -81 22 -36 48 -76 58 -89 10 -13
18 -27 18 -31 0 -4 -29 -20 -65 -36 -36 -15 -62 -30 -58 -34 4 -4 46 -17 93
-29 47 -11 144 -37 215 -56 305 -82 319 -85 325 -75 4 6 17 57 30 113 12 56
33 143 46 192 13 50 30 122 38 160 8 39 17 83 21 98 l7 28 -57 -26 c-32 -14
-61 -25 -65 -25 -5 0 -68 91 -142 202 -73 111 -179 272 -235 357 l-102 154
-133 33 c-73 18 -203 49 -288 69 -85 20 -198 47 -251 60 -122 32 -123 32 -104
-2z"/>
<path d="M1905 4578 c-76 -147 -156 -301 -215 -413 -26 -49 -81 -153 -120
-230 -40 -77 -100 -192 -133 -255 -103 -198 -109 -212 -101 -220 5 -4 74 -42
154 -83 80 -41 224 -116 320 -166 96 -50 176 -91 178 -91 2 0 17 30 34 68 31
68 99 211 213 447 92 189 165 347 165 355 0 4 -21 42 -47 84 -27 42 -57 91
-68 110 -11 19 -54 89 -95 156 -41 66 -84 136 -95 155 -54 93 -120 195 -125
195 -4 0 -33 -51 -65 -112z"/>
<path d="M2448 3046 c-43 -19 -77 -57 -89 -98 -12 -45 -6 -69 27 -119 85 -125
294 -28 255 118 -23 85 -117 133 -193 99z"/>
<path d="M2075 2991 c-33 -14 -74 -61 -83 -95 -29 -103 65 -201 173 -180 43 8
90 59 105 115 10 35 8 46 -10 82 -11 23 -32 51 -47 61 -29 21 -107 31 -138 17z"/>
<path d="M2815 2991 c-58 -24 -105 -109 -91 -165 10 -42 64 -95 108 -107 90
-24 180 44 180 136 0 99 -107 172 -197 136z"/>
<path d="M2335 2780 c-22 -9 -45 -15 -51 -13 -6 2 -25 -9 -41 -26 -66 -65
-184 -58 -239 15 -15 19 -34 34 -43 34 -27 0 -123 -54 -143 -81 -37 -49 16
-89 74 -54 38 22 47 13 12 -14 -36 -28 -75 -27 -104 4 -15 16 -34 25 -53 25
-32 0 -121 41 -153 71 -26 24 -56 24 -77 1 -27 -29 -20 -50 26 -83 93 -69 213
-101 297 -80 28 7 54 11 57 8 15 -16 -47 -335 -117 -602 -60 -230 -79 -311
-80 -342 0 -31 38 -63 76 -63 59 0 77 33 119 220 10 41 27 111 40 155 13 44
26 97 29 117 15 85 36 138 56 138 18 0 19 -13 22 -296 l3 -296 24 -19 c30 -25
72 -24 105 2 l26 20 0 292 c0 161 5 328 10 372 21 174 47 319 58 323 18 6 14
33 -5 48 -12 9 -14 13 -5 14 8 0 27 -13 43 -29 l29 -29 0 -494 c0 -536 -1
-528 55 -542 29 -7 79 15 89 39 3 9 6 138 6 286 0 260 1 269 20 269 18 0 19
-10 22 -280 3 -249 5 -281 20 -297 26 -26 86 -22 109 6 18 22 19 49 19 512 0
333 3 496 11 512 11 23 76 63 87 53 2 -3 -7 -11 -22 -17 -30 -14 -31 -15 -11
-63 14 -34 32 -129 55 -301 5 -38 10 -203 10 -366 0 -284 1 -297 21 -323 25
-32 75 -35 110 -7 l24 19 5 293 c4 264 7 294 22 297 10 2 19 -5 22 -20 4 -13
13 -45 21 -73 14 -52 69 -267 87 -345 22 -95 50 -171 68 -180 28 -15 77 -12
94 6 36 35 34 55 -29 289 -18 66 -36 136 -40 155 -4 19 -18 73 -31 120 -26 97
-80 417 -71 426 3 3 29 0 57 -7 84 -21 204 11 298 80 45 34 53 58 24 84 -24
22 -44 21 -73 -2 -39 -30 -127 -71 -153 -71 -13 0 -38 -11 -54 -25 -38 -32
-68 -32 -115 1 -48 32 -41 44 8 15 20 -11 47 -21 60 -21 26 0 50 32 41 55 -8
23 -86 74 -129 86 -39 10 -41 10 -77 -29 -64 -71 -160 -77 -233 -13 -30 26
-47 33 -118 48 -16 3 -41 -3 -65 -16 -50 -27 -94 -27 -152 3 -46 23 -48 23
-87 6z"/>
<path d="M4170 2308 c-51 -33 -68 -44 -135 -83 -79 -47 -314 -190 -392 -239
-35 -21 -63 -42 -63 -46 0 -4 18 -32 40 -64 22 -31 40 -59 40 -61 0 -2 29 -47
65 -100 36 -52 65 -97 65 -99 0 -2 49 -77 108 -167 60 -90 130 -197 156 -236
l47 -73 421 0 c343 0 418 2 410 13 -9 11 -216 351 -282 462 -17 28 -165 272
-253 415 -22 36 -49 81 -61 101 -78 132 -121 199 -126 199 -3 0 -21 -10 -40
-22z"/>
<path d="M900 2300 c-177 -44 -376 -90 -388 -90 -8 0 -38 -7 -68 -16 l-55 -16
51 -40 c27 -22 50 -45 50 -50 0 -6 -41 -81 -91 -167 -51 -86 -103 -176 -117
-201 -14 -25 -33 -57 -43 -72 -11 -14 -19 -29 -19 -33 0 -3 -13 -26 -30 -50
-16 -24 -30 -48 -30 -53 0 -5 -8 -20 -18 -33 -10 -13 -32 -49 -49 -79 l-30
-55 18 -80 c10 -44 32 -141 49 -215 17 -74 44 -189 59 -255 16 -66 34 -148 41
-183 l13 -63 41 63 c23 35 59 93 81 128 21 36 66 108 100 160 34 52 135 212
225 355 227 362 230 367 251 397 11 15 19 30 19 33 0 11 44 65 53 65 5 0 31
-18 58 -41 27 -22 49 -36 49 -31 0 5 -7 43 -15 83 -8 41 -35 183 -61 317 -28
143 -52 242 -58 241 -6 -1 -45 -9 -86 -19z"/>
<path d="M3395 1122 c-55 -53 -163 -157 -239 -229 l-139 -132 219 -216 c236
-232 230 -229 233 -138 2 62 3 63 120 63 58 0 250 5 426 11 l320 11 249 252
c137 138 268 271 290 295 l41 44 -714 -8 -714 -7 6 76 c4 42 6 76 4 76 -1 0
-47 -44 -102 -98z"/>
<path d="M763 1203 c-24 -2 -43 -8 -43 -13 0 -7 -226 -369 -372 -594 -31 -50
-55 -92 -52 -95 6 -6 932 -29 1210 -30 l172 -1 6 183 c3 100 8 266 10 370 l5
187 -447 -2 c-246 -1 -466 -3 -489 -5z"/>
</g>
</svg>
