<?xml version="1.0" standalone="no"?>
<!DOCTYPE svg PUBLIC "-//W3C//DTD SVG 20010904//EN"
 "http://www.w3.org/TR/2001/REC-SVG-20010904/DTD/svg10.dtd">
<svg version="1.0" xmlns="http://www.w3.org/2000/svg"
 width="1080.000000pt" height="1080.000000pt" viewBox="0 0 1080.000000 1080.000000"
 preserveAspectRatio="xMidYMid meet">

<g transform="translate(0.000000,1080.000000) scale(0.100000,-0.100000)"
fill="#000000" stroke="none">
<path d="M4399 10172 c5 -10 57 -96 116 -192 60 -96 188 -305 285 -465 97
-159 214 -351 260 -425 45 -74 188 -308 318 -520 218 -357 388 -635 553 -905
38 -60 65 -113 61 -116 -4 -3 -69 -35 -144 -70 -75 -35 -134 -67 -130 -71 4
-4 185 -54 402 -113 217 -58 527 -142 689 -186 161 -44 296 -78 298 -75 5 5
27 95 107 431 13 55 65 275 116 488 51 214 90 390 88 393 -3 2 -63 -23 -134
-56 -71 -33 -133 -60 -139 -60 -5 0 -50 62 -100 138 -49 75 -180 274 -290 442
-262 397 -416 631 -533 810 -52 80 -97 148 -101 152 -6 6 -88 27 -496 123 -99
24 -391 93 -650 154 -258 62 -496 118 -527 126 -53 12 -57 12 -49 -3z"/>
<path d="M4234 10129 c-9 -19 -68 -133 -131 -254 -64 -121 -151 -290 -195
-375 -44 -85 -97 -186 -118 -225 -21 -38 -79 -151 -130 -250 -51 -99 -105
-202 -120 -230 -15 -27 -74 -140 -130 -250 -56 -110 -115 -222 -130 -250 -15
-27 -67 -126 -115 -220 -89 -173 -148 -285 -249 -478 -31 -59 -54 -111 -51
-116 3 -6 94 -56 203 -112 108 -56 233 -121 277 -144 44 -23 152 -80 240 -125
88 -46 192 -100 230 -120 39 -21 163 -85 276 -143 l205 -107 219 458 c120 251
270 562 332 691 62 128 113 235 113 236 0 2 52 110 116 242 63 131 116 245
117 253 0 8 -138 242 -308 520 -170 278 -376 615 -458 750 -195 319 -172 289
-193 249z"/>
<path d="M5282 6585 c-85 -39 -128 -79 -164 -152 -28 -57 -33 -77 -33 -142 0
-61 5 -85 25 -124 38 -76 85 -123 155 -158 60 -29 70 -31 147 -27 99 5 164 34
222 98 59 66 81 122 81 210 -1 180 -126 308 -310 317 -58 3 -79 -1 -123 -22z"/>
<path d="M4482 6466 c-135 -59 -215 -201 -192 -344 13 -77 44 -135 101 -186
60 -54 129 -79 220 -80 58 0 77 5 136 34 90 47 136 111 159 224 15 73 15 83
-1 143 -15 54 -28 76 -75 127 -67 71 -119 95 -226 101 -56 3 -79 0 -122 -19z"/>
<path d="M6103 6471 c-93 -32 -165 -96 -200 -179 -8 -20 -18 -73 -20 -117 -5
-78 -4 -82 30 -141 70 -118 161 -176 282 -177 55 -1 82 4 125 24 134 62 193
156 191 305 -1 66 -5 83 -31 130 -44 76 -109 130 -188 154 -79 24 -121 25
-189 1z"/>
<path d="M5044 6012 c-67 -33 -83 -37 -107 -28 -26 10 -32 7 -70 -35 -57 -62
-110 -95 -182 -114 -78 -20 -110 -19 -187 5 -73 22 -130 67 -190 147 -37 51
-43 55 -71 49 -47 -9 -247 -108 -286 -141 -68 -58 -76 -132 -19 -180 42 -35
82 -32 154 11 101 61 100 61 75 25 -27 -37 -97 -80 -144 -88 -55 -8 -104 13
-132 58 -26 40 -34 44 -123 54 -30 3 -77 15 -106 25 -50 19 -190 102 -225 135
-69 61 -191 12 -191 -77 0 -31 7 -45 40 -78 74 -74 209 -149 350 -195 73 -24
102 -28 205 -28 66 -1 148 5 183 13 43 9 66 10 73 3 7 -7 4 -47 -9 -124 -11
-63 -23 -143 -27 -179 -3 -36 -10 -81 -15 -100 -5 -19 -14 -78 -20 -130 -12
-91 -35 -188 -212 -875 -44 -170 -83 -326 -88 -345 -4 -19 -17 -71 -29 -114
-26 -98 -28 -187 -4 -223 32 -48 91 -83 141 -83 48 0 118 28 146 58 15 18 86
241 86 272 0 8 11 53 24 100 25 85 91 345 168 660 22 91 47 189 55 218 l15 53
41 -3 42 -3 5 -615 c4 -496 8 -620 19 -640 20 -37 52 -70 85 -87 82 -43 210
16 236 108 6 20 10 282 10 657 0 635 1 665 41 912 19 116 40 254 49 325 22
173 28 197 61 231 31 32 32 34 15 59 -9 14 -28 31 -42 37 -34 16 -30 28 6 18
46 -13 89 -48 110 -90 20 -38 20 -63 20 -1093 l0 -1053 29 -47 c57 -89 156
-111 240 -52 79 54 76 29 73 665 -3 617 -4 610 51 596 l27 -6 0 -582 0 -581
26 -45 c69 -117 236 -105 295 23 18 38 19 91 19 1095 0 1206 -10 1086 97 1153
79 48 116 50 45 1 -29 -19 -56 -42 -59 -50 -3 -7 9 -30 26 -49 19 -23 31 -47
31 -65 0 -16 4 -40 10 -55 9 -24 31 -164 45 -285 3 -30 15 -100 25 -155 38
-196 40 -251 40 -883 0 -345 5 -645 10 -666 18 -79 73 -127 153 -134 56 -4 88
7 135 47 52 45 52 44 52 689 0 452 3 601 12 610 7 7 27 12 44 12 32 0 33 -2
44 -57 6 -32 18 -78 27 -103 9 -25 26 -88 39 -140 12 -52 55 -221 95 -375 39
-154 78 -309 86 -345 22 -101 63 -232 84 -267 38 -62 140 -90 214 -59 39 17
92 84 100 130 4 21 -15 113 -60 291 -37 143 -72 288 -80 322 -7 35 -17 75 -24
90 -29 74 -181 711 -195 818 -8 66 -29 208 -46 315 -17 107 -29 199 -28 206 2
8 27 4 83 -13 199 -61 470 4 683 164 81 61 92 77 92 126 0 28 -8 42 -40 71
-26 23 -50 36 -68 36 -17 0 -69 -28 -139 -74 -124 -82 -194 -113 -281 -122
-79 -9 -99 -18 -117 -53 -19 -38 -62 -61 -114 -61 -31 0 -57 12 -125 57 -79
52 -101 73 -77 73 5 0 47 -22 92 -50 102 -62 136 -65 185 -16 68 68 37 136
-95 215 -66 39 -212 101 -238 101 -6 0 -31 -26 -55 -57 -78 -103 -185 -163
-289 -163 -90 0 -214 62 -272 135 -26 32 -31 35 -66 29 -31 -5 -51 0 -102 25
-79 38 -100 39 -158 1 -79 -50 -120 -63 -201 -63 -81 -1 -148 23 -219 77 -19
14 -40 26 -46 26 -6 0 -47 -17 -91 -38z"/>
<path d="M8819 4873 c-151 -91 -398 -241 -549 -333 -151 -92 -337 -205 -413
-250 -76 -46 -136 -88 -134 -94 3 -6 154 -240 337 -521 183 -280 399 -611 480
-735 81 -124 186 -285 234 -358 l86 -132 903 6 c496 4 903 8 904 8 1 1 -100
171 -225 377 -125 205 -477 785 -781 1287 -305 501 -557 912 -561 912 -3 0
-130 -75 -281 -167z"/>
<path d="M1940 4970 c-227 -53 -587 -136 -897 -207 -112 -25 -203 -49 -203
-53 0 -4 51 -49 113 -100 61 -51 111 -96 110 -100 -2 -8 -112 -196 -745 -1277
l-188 -323 35 -152 c19 -84 55 -241 80 -348 24 -107 76 -332 115 -500 39 -168
91 -395 116 -505 25 -110 49 -203 53 -208 4 -4 99 138 211 315 193 307 298
473 837 1328 126 201 312 496 413 655 100 160 184 291 185 293 2 2 57 -39 122
-90 140 -112 142 -113 137 -91 -3 16 -91 459 -231 1170 -27 134 -50 242 -53
242 -3 -1 -97 -23 -210 -49z"/>
<path d="M7490 2578 c-41 -40 -122 -117 -180 -172 -58 -55 -152 -146 -210
-201 -315 -301 -500 -477 -544 -516 l-49 -44 484 -477 c266 -262 485 -475 487
-473 1 1 9 56 17 121 9 66 17 133 20 150 l5 30 338 13 c185 6 438 16 562 21
124 5 389 15 590 21 l365 12 104 106 c57 58 264 268 460 466 196 198 430 436
521 528 l165 169 -1546 -7 -1545 -7 12 123 c7 68 16 143 19 167 3 23 5 42 3
42 -2 0 -37 -33 -78 -72z"/>
<path d="M2675 2619 c-374 -5 -774 -11 -890 -15 l-210 -6 -101 -162 c-117
-185 -524 -831 -721 -1144 -74 -117 -133 -216 -130 -218 7 -7 1078 -31 2660
-61 l357 -6 0 124 c0 115 10 598 25 1237 l7 262 -159 -2 c-87 -1 -464 -5 -838
-9z"/>
</g>
</svg>
